USFL
nRows=132
nColumns=2
inDegrees=yes
endheader
time	med_gas_r	
3.50706	 53.443381	
3.57863	 53.340210	
3.6502	 53.213196	
3.72177	 53.167206	
3.79335	 53.133873	
3.86492	 53.097247	
3.93649	 53.054155	
4.00806	 53.120445	
4.07964	 53.214085	
4.15121	 53.207930	
4.22278	 53.240331	
4.29435	 53.264652	
4.36593	 53.312879	
4.4375	 53.271038	
4.50907	 53.242203	
4.58065	 53.209648	
4.65222	 53.201881	
4.72379	 53.164916	
4.79536	 53.132928	
4.86694	 53.172319	
4.93851	 53.178419	
5.01008	 53.113064	
5.08165	 53.132832	
5.15323	 53.219772	
5.2248	 53.256697	
5.29637	 53.219137	
5.36794	 53.175748	
5.43952	 53.085015	
5.51109	 53.082055	
5.58266	 52.900645	
5.65423	 52.342256	
5.72581	 52.881893	
5.79738	 52.830816	
5.86895	 52.099871	
5.94052	 52.174895	
6.0121	 51.967992	
6.08367	 51.842191	
6.15524	 51.854687	
6.22681	 51.622316	
6.29839	 51.254674	
6.36996	 51.339680	
6.44153	 51.319494	
6.5131	 51.119860	
6.58468	 51.523201	
6.65625	 51.715762	
6.72782	 51.297311	
6.7994	 51.415500	
6.87097	 51.365351	
6.94254	 51.098163	
7.01411	 51.238629	
7.08569	 51.353935	
7.15726	 51.345457	
7.22883	 51.278192	
7.3004	 51.119642	
7.37198	 51.014260	
7.44355	 50.865292	
7.51512	 50.401177	
7.58669	 50.583658	
7.65827	 48.731855	
7.72984	 47.670090	
7.80141	 47.597920	
7.87298	 47.665912	
7.94456	 45.536426	
8.01613	 45.219588	
8.0877	 42.474548	
8.15927	 42.349121	
8.23085	 42.322383	
8.30242	 42.291224	
8.37399	 42.210334	
8.44556	 42.149208	
8.51714	 42.204430	
8.58871	 42.153752	
8.66028	 42.030450	
8.73185	 41.768239	
8.80343	 41.436370	
8.875	 40.769467	
8.94657	 40.460364	
9.01815	 40.186145	
9.08972	 39.986200	
9.16129	 39.926848	
9.23286	 39.830074	
9.30444	 39.831823	
9.37601	 39.883449	
9.44758	 39.848202	
9.51915	 39.910550	
9.59073	 40.055024	
9.6623	 40.066121	
9.73387	 39.984856	
9.80544	 39.924817	
9.87702	 39.855123	
9.94859	 39.830685	
10.0202	 39.839753	
10.0917	 39.883482	
10.1633	 39.857957	
10.2349	 39.856346	
10.3065	 39.812109	
10.378	 39.789252	
10.4496	 39.771055	
10.5212	 39.793915	
10.5927	 39.833293	
10.6643	 39.749854	
10.7359	 39.767398	
10.8075	 39.639053	
10.879	 39.673641	
10.9506	 39.458305	
11.0222	 39.449030	
11.0937	 39.257556	
11.1653	 39.134301	
11.2369	 39.000700	
11.3085	 38.895478	
11.38	 38.756901	
11.4516	 38.766718	
11.5232	 38.821377	
11.5948	 38.875799	
11.6663	 38.854607	
11.7379	 38.994722	
11.8095	 39.107374	
11.881	 39.086907	
11.9526	 39.126950	
12.0242	 39.186986	
12.0958	 39.303564	
12.1673	 40.701873	
12.2389	 42.266020	
12.3105	 43.070170	
12.3821	 46.933178	
12.4536	 48.633808	
12.5252	 53.173568	
12.5968	 53.236758	
12.6683	 53.360084	
12.7399	 53.458864	
12.8115	 53.511005	
12.8831	 53.618332	
